HIERARCHY
ROOT Hips
{
	OFFSET 0.000000 0.000000 0.000000
	CHANNELS 6 Xposition Yposition Zposition Zrotation Yrotation Xrotation 
	JOINT LHipJoint
	{
		OFFSET 0.000000 0.000000 0.000000
		CHANNELS 3 Zrotation Yrotation Xrotation
		JOINT LeftUpLeg
		{
			OFFSET 1.363060 -1.794630 0.839290
			CHANNELS 3 Zrotation Yrotation Xrotation
			JOINT LeftLeg
			{
				OFFSET 2.448110 -6.726130 0.000000
				CHANNELS 3 Zrotation Yrotation Xrotation
				JOINT LeftFoot
				{
					OFFSET 2.562200 -7.039590 0.000000
					CHANNELS 3 Zrotation Yrotation Xrotation
					JOINT LeftToeBase
					{
						OFFSET 0.157640 -0.433110 2.322550
						CHANNELS 3 Zrotation Yrotation Xrotation
						End Site
						{
							OFFSET 0.000000 0.000000 0.000000
						}
					}
				}
			}
		}
	}
	JOINT RHipJoint
	{
		OFFSET 0.000000 0.000000 0.000000
		CHANNELS 3 Zrotation Yrotation Xrotation
		JOINT RightUpLeg
		{
			OFFSET -1.305520 -1.794630 0.839290
			CHANNELS 3 Zrotation Yrotation Xrotation
			JOINT RightLeg
			{
				OFFSET -2.542530 -6.985550 0.000000
				CHANNELS 3 Zrotation Yrotation Xrotation
				JOINT RightFoot
				{
					OFFSET -2.568260 -7.056230 0.000000
					CHANNELS 3 Zrotation Yrotation Xrotation
					JOINT RightToeBase
					{
						OFFSET -0.164730 -0.452590 2.363150
						CHANNELS 3 Zrotation Yrotation Xrotation
						End Site
						{
							OFFSET 0.000000 0.000000 0.000000
						}
					}
				}
			}
		}
	}
	JOINT LowerBack
	{
		OFFSET 0.000000 0.000000 0.000000
		CHANNELS 3 Zrotation Yrotation Xrotation
		JOINT Spine
		{
			OFFSET 0.028270 2.035590 -0.193380
			CHANNELS 3 Zrotation Yrotation Xrotation
			JOINT Spine1
			{
				OFFSET 0.056720 2.048850 -0.042750
				CHANNELS 3 Zrotation Yrotation Xrotation
				JOINT Neck
				{
					OFFSET 0.000000 0.000000 0.000000
					CHANNELS 3 Zrotation Yrotation Xrotation
					JOINT Neck1
					{
						OFFSET -0.054170 1.746240 0.172020
						CHANNELS 3 Zrotation Yrotation Xrotation
						JOINT Head
						{
							OFFSET 0.104070 1.761360 -0.123970
							CHANNELS 3 Zrotation Yrotation Xrotation
							End Site
							{
								OFFSET 0.000000 0.000000 0.000000
							}
						}
					}
				}
				JOINT LeftShoulder
				{
					OFFSET 0.000000 0.000000 0.000000
					CHANNELS 3 Zrotation Yrotation Xrotation
					JOINT LeftArm
					{
						OFFSET 3.362410 1.200890 -0.311210
						CHANNELS 3 Zrotation Yrotation Xrotation
						JOINT LeftForeArm
						{
							OFFSET 4.983000 -0.000000 -0.000000
							CHANNELS 3 Zrotation Yrotation Xrotation
							JOINT LeftHand
							{
								OFFSET 3.483560 -0.000000 -0.000000
								CHANNELS 3 Zrotation Yrotation Xrotation
								JOINT LeftFingerBase
								{
									OFFSET 0.000000 0.000000 0.000000
									CHANNELS 3 Zrotation Yrotation Xrotation
									JOINT LeftHandIndex1
									{
										OFFSET 0.715260 -0.000000 -0.000000
										CHANNELS 3 Zrotation Yrotation Xrotation
										End Site
										{
											OFFSET 0.000000 0.000000 0.000000
										}
									}
								}
								JOINT LThumb
								{
									OFFSET 0.000000 0.000000 0.000000
									CHANNELS 3 Zrotation Yrotation Xrotation
									End Site
									{
										OFFSET 0.000000 0.000000 0.000000
									}
								}
							}
						}
					}
				}
				JOINT RightShoulder
				{
					OFFSET 0.000000 0.000000 0.000000
					CHANNELS 3 Zrotation Yrotation Xrotation
					JOINT RightArm
					{
						OFFSET -3.136600 1.374050 -0.404650
						CHANNELS 3 Zrotation Yrotation Xrotation
						JOINT RightForeArm
						{
							OFFSET -5.241900 -0.000000 -0.000000
							CHANNELS 3 Zrotation Yrotation Xrotation
							JOINT RightHand
							{
								OFFSET -3.444170 -0.000000 -0.000000
								CHANNELS 3 Zrotation Yrotation Xrotation
								JOINT RightFingerBase
								{
									OFFSET 0.000000 0.000000 0.000000
									CHANNELS 3 Zrotation Yrotation Xrotation
									JOINT RightHandIndex1
									{
										OFFSET -0.622530 -0.000000 -0.000000
										CHANNELS 3 Zrotation Yrotation Xrotation
										End Site
										{
											OFFSET 0.000000 0.000000 0.000000
										}
									}
								}
								JOINT RThumb
								{
									OFFSET 0.000000 0.000000 0.000000
									CHANNELS 3 Zrotation Yrotation Xrotation
									End Site
									{
										OFFSET 0.000000 0.000000 0.000000
									}
								}
							}
						}
					}
				}
			}
		}
	}
}
MOTION
Frames: 4
Frame Time: 0.008333
1.042183 16.731370 -1.541460 6.614660 81.594042 5.473254 -10.552426 2.363240 -0.172095 -10.516854 8.684288 -3.100935 -1.968237 0.644722 26.297071 2.384565 10.748072 -21.503082 -3.148000 0.000000 -26.899900 10.242993 -0.778540 -1.955831 6.455612 -13.302529 -29.927586 0.469524 -3.877046 56.191838 -3.124032 -14.204560 -19.105543 2.631600 0.000000 -0.075900 -0.938057 -1.204039 0.772927 -0.936454 -1.162404 -2.411227 -6.388523 -1.144216 1.760034 9.095293 -10.715439 -9.409632 -3.009764 -0.206789 -0.507692 0.000000 0.000000 0.000000 -1.957680 16.444645 1.312644 -58.572157 -6.814748 4.646341 -3.867853 -26.772743 -0.005488 1.784344 2.328708 0.039566 -0.150058 0.029608 0.000000 0.000000 0.000000 0.000000 0.000000 0.000000 0.000000 14.380744 -6.601995 0.234151 67.563618 -2.393470 -8.060188 3.588375 20.940999 0.009742 -0.939502 5.042221 -0.046360 0.111447 -0.069172 -0.000000 0.000000 0.000000 0.000000 0.000000 0.000000 0.000000 
1.292663 16.746233 -1.520461 5.572635 82.072459 4.532719 -10.572658 2.471708 -0.079893 -10.130546 8.659059 -1.465264 -1.952162 0.542606 24.576681 2.345034 10.610448 -21.016489 -3.009900 -0.000000 -28.297300 10.041111 -0.671884 -1.888624 7.456930 -13.700015 -31.080114 0.685999 -3.693482 53.695335 -3.141152 -13.979227 -18.725267 2.479500 -0.000000 -1.482800 -0.462521 -1.451050 0.620550 -0.848331 -1.447166 -2.414967 -6.465773 -1.421046 1.804306 9.223113 -11.134317 -9.451950 -3.054588 -0.210010 -0.514654 0.000000 0.000000 0.000000 -1.533941 15.869117 1.359180 -56.747435 -7.455167 4.323623 -3.821042 -28.627482 -0.005863 1.560837 2.419724 0.036535 -0.155076 0.036129 0.000000 0.000000 0.000000 0.000000 0.000000 0.000000 0.000000 14.828552 -7.251087 0.224605 68.620709 -3.493563 -9.039353 3.669954 19.606747 0.009761 -0.798153 4.978590 -0.039492 0.110990 -0.063688 -0.000000 0.000000 0.000000 0.000000 0.000000 0.000000 0.000000 
1.544690 16.759236 -1.497781 4.377053 82.562638 3.450917 -10.595330 2.584006 0.009965 -9.716724 8.643768 0.138906 -1.928153 0.446915 22.871675 2.298451 10.466979 -20.442962 -2.852501 0.000000 -29.900400 9.836376 -0.582975 -1.801126 8.444717 -14.023865 -32.093092 0.919017 -3.490689 50.952454 -3.133140 -13.605625 -18.303457 2.295400 0.000000 -2.996699 0.006634 -1.696662 0.447127 -0.759164 -1.730834 -2.420930 -6.532985 -1.696620 1.854906 9.350457 -11.597783 -9.514029 -3.089846 -0.212303 -0.526368 0.000000 0.000000 0.000000 -1.096373 15.306533 1.409249 -54.876312 -8.033415 3.993118 -3.754260 -30.389914 -0.006121 1.400802 2.471617 0.033998 -0.159218 0.042926 0.000000 0.000000 0.000000 0.000000 0.000000 0.000000 0.000000 15.254613 -7.940341 0.218514 69.619841 -4.636737 -9.889173 3.745237 18.423120 0.009798 -0.620119 4.931694 -0.031321 0.110220 -0.058568 -0.000000 0.000000 0.000000 0.000000 0.000000 0.000000 0.000000 
1.798007 16.770128 -1.473121 3.005229 83.064089 2.202632 -10.620803 2.699712 0.090037 -9.268548 8.654276 1.698462 -1.897534 0.361389 21.220192 2.241417 10.297868 -19.782257 -2.672700 0.000000 -31.692100 9.632220 -0.509441 -1.689277 9.401083 -14.244158 -32.951744 1.167597 -3.265451 47.974883 -3.103919 -13.107092 -17.874220 2.096000 0.000000 -4.547800 0.462426 -1.940923 0.257954 -0.669759 -2.012871 -2.428514 -6.588729 -1.970523 1.911235 9.477542 -12.103227 -9.596337 -3.114216 -0.213532 -0.543070 0.000000 0.000000 0.000000 -0.639314 14.762200 1.461597 -52.971691 -8.556520 3.642773 -3.669061 -32.042780 -0.006282 1.310607 2.483410 0.032255 -0.162516 0.050223 0.000000 0.000000 0.000000 0.000000 0.000000 0.000000 0.000000 15.653603 -8.666531 0.215914 70.573217 -5.827439 -10.580006 3.814419 17.409353 0.009826 -0.405761 4.889554 -0.021749 0.109175 -0.053689 -0.000000 0.000000 0.000000 0.000000 0.000000 0.000000 0.000000 
